<?xml version="1.0" standalone="no"?>
<!DOCTYPE svg PUBLIC "-//W3C//DTD SVG 20010904//EN"
 "http://www.w3.org/TR/2001/REC-SVG-20010904/DTD/svg10.dtd">
<svg version="1.0" xmlns="http://www.w3.org/2000/svg"
 width="640.000000pt" height="640.000000pt" viewBox="0 0 640.000000 640.000000"
 preserveAspectRatio="xMidYMid meet">
<metadata>
Created by potrace 1.16, written by Peter Selinger 2001-2019
</metadata>
<g transform="translate(0.000000,640.000000) scale(0.100000,-0.100000)"
fill="#000000" stroke="none">
<path d="M0 3200 l0 -3200 3200 0 3200 0 0 3200 0 3200 -3200 0 -3200 0 0
-3200z m3240 2780 c0 -5 6 -7 14 -4 20 8 70 -20 95 -52 36 -46 41 -93 45 -409
2 -168 6 -309 9 -311 3 -3 102 67 220 155 155 115 221 159 234 155 15 -5 16
-4 3 5 -13 10 -13 12 0 20 8 5 18 7 24 4 5 -3 6 -2 3 4 -8 13 34 32 87 39 84
12 194 -43 181 -90 -5 -15 -4 -17 3 -7 8 11 13 5 21 -25 31 -111 4 -168 -122
-263 -58 -44 -101 -70 -108 -65 -7 4 -9 3 -6 -3 4 -6 -24 -34 -61 -62 -37 -28
-82 -63 -101 -78 -19 -16 -56 -43 -82 -60 -26 -18 -50 -37 -54 -43 -3 -5 -11
-10 -16 -10 -6 0 -7 5 -3 12 4 7 3 8 -5 4 -6 -4 -9 -11 -6 -15 4 -8 -17 -30
-44 -46 -9 -5 -12 -4 -7 3 4 8 2 10 -8 6 -8 -3 -12 -12 -9 -20 3 -8 1 -14 -4
-14 -8 0 -91 -60 -139 -99 -9 -7 -11 -161 -9 -583 2 -315 3 -577 4 -581 1 -4
16 3 34 16 72 53 227 138 239 131 7 -4 10 -3 5 1 -9 11 74 66 91 60 7 -3 11
-1 7 4 -8 13 482 304 496 295 8 -5 9 -3 4 6 -6 10 -4 12 9 7 9 -4 15 -3 11 2
-3 5 17 23 44 39 l48 30 7 69 c4 37 11 100 16 138 6 39 19 162 30 275 41 416
47 460 62 478 8 9 18 25 21 34 11 31 88 71 145 76 36 3 52 1 52 -7 0 -7 5 -9
11 -6 15 10 92 -44 85 -60 -3 -9 0 -12 9 -9 35 14 47 -125 25 -285 -14 -97
-40 -366 -40 -410 0 -28 3 -32 18 -26 9 5 25 8 34 9 9 0 14 4 12 8 -3 4 31 29
76 55 44 26 97 58 118 70 20 13 43 21 49 18 7 -2 12 1 10 7 -3 14 61 50 75 42
6 -4 8 -3 5 2 -3 6 31 32 76 59 77 48 84 50 153 50 59 0 78 -4 101 -21 16 -12
27 -30 26 -40 -1 -11 0 -13 3 -6 8 18 27 15 20 -4 -3 -8 -2 -13 3 -10 12 8 22
-20 14 -41 -4 -11 -3 -14 5 -9 9 5 12 -8 12 -48 0 -60 -7 -89 -21 -80 -5 3 -6
-2 -3 -10 7 -20 -72 -99 -92 -92 -8 3 -12 1 -9 -4 3 -5 -16 -20 -42 -32 -26
-13 -54 -29 -62 -36 -7 -7 -20 -11 -27 -8 -18 7 -44 -3 -44 -17 0 -7 4 -7 12
1 18 18 33 15 17 -4 -7 -8 -21 -13 -30 -11 -11 3 -17 0 -16 -7 1 -6 -8 -10
-23 -8 -17 1 -21 -1 -12 -7 10 -6 1 -15 -33 -35 -26 -14 -51 -26 -55 -26 -4 0
-13 -7 -20 -15 -7 -9 -19 -14 -27 -11 -9 4 -11 1 -7 -6 5 -8 1 -9 -12 -4 -10
4 -15 4 -12 0 4 -4 -4 -16 -18 -27 -22 -17 -28 -18 -36 -6 -8 11 -9 11 -5 -2
3 -9 -4 -21 -15 -28 -20 -13 -20 -13 8 -26 16 -8 103 -44 194 -80 220 -88 219
-88 214 -97 -3 -4 1 -5 9 -2 20 7 157 -58 184 -87 40 -44 53 -115 37 -198 -13
-65 -103 -122 -192 -123 -32 0 -152 43 -267 96 -16 7 -73 31 -125 51 -52 21
-117 48 -145 59 -27 12 -78 33 -112 46 -41 16 -58 27 -50 33 7 5 3 6 -10 2
-13 -4 -35 0 -50 9 -48 26 -122 49 -140 43 -10 -2 -27 -8 -37 -13 -14 -5 -17
-4 -12 4 5 8 2 10 -9 5 -12 -4 -13 -8 -5 -13 8 -5 -10 -20 -47 -41 -32 -18
-60 -32 -62 -30 -2 1 -7 -1 -10 -6 -16 -23 -110 -73 -127 -67 -14 4 -15 3 -6
-4 10 -6 -5 -20 -57 -51 -38 -23 -74 -41 -78 -40 -19 3 -34 -2 -29 -10 8 -13
-131 -94 -145 -85 -8 4 -9 3 -5 -4 4 -6 -4 -17 -16 -25 -13 -7 -59 -35 -102
-61 -62 -37 -81 -45 -88 -34 -7 10 -8 8 -4 -5 4 -12 -1 -20 -17 -26 -12 -5
-40 -21 -61 -36 -22 -15 -50 -31 -63 -36 -32 -12 -29 -26 10 -44 17 -8 60 -32
93 -53 34 -20 95 -57 135 -81 41 -24 84 -50 97 -58 12 -8 20 -19 16 -25 -4 -7
-3 -8 5 -4 15 10 173 -83 164 -96 -3 -7 -1 -8 5 -4 17 10 156 -75 140 -87 -9
-6 -7 -7 6 -3 17 6 111 -44 127 -67 3 -5 9 -8 13 -7 4 1 32 -13 63 -30 37 -21
52 -35 44 -40 -10 -5 -9 -9 4 -13 11 -5 14 -3 9 5 -5 8 -2 9 12 3 43 -18 65
-15 136 14 44 19 83 29 94 25 12 -4 15 -3 7 3 -8 6 8 17 50 33 34 13 85 34
112 46 28 12 93 38 145 58 52 20 102 41 110 45 9 5 72 31 141 59 142 57 179
60 251 20 77 -42 112 -129 88 -218 -9 -33 -14 -40 -22 -29 -7 11 -8 9 -4 -7 4
-14 -2 -28 -21 -46 -37 -34 -111 -71 -129 -64 -8 3 -13 2 -9 -3 3 -5 -12 -15
-32 -21 -21 -7 -42 -16 -48 -20 -24 -16 -107 -41 -120 -36 -8 3 -14 0 -12 -6
2 -13 -182 -89 -201 -83 -8 3 -10 0 -6 -7 5 -8 -2 -9 -22 -4 -21 5 -25 4 -14
-3 12 -8 10 -12 -10 -19 l-24 -9 30 -19 c16 -10 31 -21 34 -24 3 -4 13 -9 23
-13 10 -4 15 -11 12 -17 -4 -6 1 -7 11 -3 13 5 15 3 9 -7 -5 -8 -4 -11 2 -7 6
4 43 -12 82 -35 53 -30 69 -44 59 -51 -9 -6 -8 -7 6 -3 21 7 89 -31 81 -45 -4
-5 0 -6 8 -3 8 3 22 -2 30 -11 9 -9 20 -16 24 -15 4 0 8 -4 8 -9 0 -5 4 -13 9
-18 5 -5 6 -3 2 4 -9 17 -1 16 35 -2 16 -9 27 -20 24 -25 -3 -6 1 -7 9 -4 20
7 99 -72 92 -92 -3 -8 -2 -13 3 -10 14 9 21 -20 21 -80 0 -40 -3 -53 -12 -48
-8 5 -9 2 -5 -9 10 -26 -10 -59 -56 -92 -37 -26 -50 -30 -112 -30 -69 0 -71 1
-193 73 -67 41 -120 78 -117 83 4 5 0 6 -7 4 -8 -3 -78 33 -156 81 -79 47
-145 84 -147 82 -12 -11 10 -287 36 -446 23 -149 9 -283 -29 -275 -6 2 -9 -4
-6 -11 7 -17 -69 -71 -85 -61 -6 3 -11 1 -11 -6 0 -8 -16 -10 -52 -7 -59 5
-137 47 -145 79 -3 10 -9 19 -13 19 -19 0 -22 20 -64 435 -9 88 -23 216 -31
285 -8 69 -17 153 -21 188 -6 67 -9 70 -87 113 -18 9 -31 22 -29 29 1 6 -2 9
-8 5 -9 -6 -36 9 -335 188 -213 128 -245 149 -239 158 3 5 -1 7 -8 4 -12 -5
-234 120 -270 153 -16 14 -18 13 -19 -4 -1 -10 -3 -272 -4 -582 -2 -412 0
-566 9 -573 48 -40 131 -99 139 -99 5 0 7 -6 4 -14 -3 -8 1 -17 9 -20 10 -4
12 -2 8 6 -5 7 -2 8 7 3 27 -16 48 -38 44 -46 -3 -4 0 -11 6 -15 8 -4 9 -3 5
4 -4 7 -3 12 3 12 5 0 13 -5 16 -10 4 -6 28 -25 54 -43 26 -17 63 -44 82 -60
19 -15 64 -50 101 -78 37 -28 65 -56 61 -62 -3 -6 -1 -7 6 -3 15 9 73 -32 65
-46 -4 -7 -2 -8 4 -4 6 4 40 -15 74 -42 49 -39 62 -55 60 -73 -1 -16 1 -20 6
-11 12 19 28 -23 31 -81 3 -75 -56 -182 -90 -161 -7 4 -10 3 -5 -4 7 -12 -52
-32 -94 -32 -42 0 -101 20 -94 32 4 7 3 8 -4 4 -11 -6 -253 169 -279 202 -7 9
-13 13 -13 9 0 -4 -45 27 -101 69 -55 42 -103 74 -106 71 -3 -3 -7 -144 -9
-312 -2 -179 -8 -324 -15 -348 -19 -70 -95 -125 -178 -129 -25 -1 -101 22
-101 30 0 5 -7 17 -16 28 -14 18 -14 18 -3 -6 l12 -25 -23 20 c-55 48 -59 75
-64 419 -3 175 -7 320 -9 323 -5 4 -106 -68 -191 -136 -22 -18 -45 -30 -52
-27 -8 3 -11 -1 -7 -10 3 -7 1 -14 -4 -14 -5 0 -47 -29 -93 -65 -58 -44 -91
-63 -105 -60 -11 3 -14 2 -7 -1 18 -8 15 -27 -4 -20 -8 3 -12 2 -9 -4 8 -13
-47 -39 -97 -46 -125 -17 -218 67 -218 198 0 40 18 90 30 83 4 -3 7 3 6 12 -1
20 183 165 202 158 7 -3 11 -1 8 4 -3 5 25 32 62 60 37 28 72 54 77 59 6 4 28
21 50 37 22 17 42 32 45 35 19 20 120 89 120 83 0 -4 4 -3 8 4 4 6 47 42 96
80 l89 68 5 280 c2 154 1 416 -3 582 l-7 302 -32 -23 c-17 -12 -76 -49 -131
-81 -55 -32 -174 -103 -265 -157 -199 -120 -182 -110 -211 -129 -53 -36 -194
-114 -201 -111 -5 1 -8 -2 -8 -7 0 -8 -58 -47 -115 -76 -14 -7 -22 -25 -27
-60 -12 -93 -28 -240 -48 -440 -34 -333 -48 -449 -59 -475 -17 -40 -44 -66
-94 -89 -82 -38 -157 -24 -219 39 -25 25 -38 46 -34 56 3 8 2 13 -3 10 -23
-15 -20 105 8 309 15 113 35 365 28 371 -3 3 -27 -7 -54 -23 -26 -15 -57 -28
-68 -28 -11 0 -19 -5 -18 -12 3 -16 -233 -156 -249 -147 -7 4 -10 4 -6 -1 10
-11 -61 -57 -78 -51 -8 3 -13 0 -11 -7 1 -6 -18 -22 -43 -35 -63 -33 -151 -27
-209 14 -23 16 -39 35 -36 42 3 7 1 11 -4 8 -12 -8 -22 20 -14 41 4 11 3 14
-5 9 -9 -5 -12 9 -12 51 0 48 6 68 29 104 16 25 44 56 63 67 39 25 53 28 42
10 -4 -7 -3 -8 5 -4 6 4 9 12 6 17 -4 5 11 17 32 26 21 10 40 20 43 24 18 19
113 68 122 63 6 -4 8 -3 5 3 -3 5 13 20 36 33 23 13 54 32 69 43 15 11 31 16
39 12 8 -6 10 -4 4 5 -6 10 -4 12 11 6 10 -4 15 -4 12 0 -7 7 33 44 48 44 4 0
16 8 26 17 18 16 17 17 -19 34 -21 10 -41 18 -45 19 -4 0 -32 11 -62 25 -30
14 -58 25 -62 25 -4 0 -30 11 -58 23 -28 13 -90 39 -138 57 -48 19 -84 38 -81
43 3 6 1 7 -6 3 -14 -9 -96 27 -130 57 -13 12 -30 36 -37 54 -16 37 -19 147
-4 138 5 -3 7 0 4 9 -3 8 0 24 6 37 30 55 99 90 178 91 32 0 166 -49 267 -96
17 -8 86 -37 155 -64 263 -104 289 -116 277 -125 -7 -5 -4 -6 9 -2 13 3 41 -3
65 -14 127 -56 107 -55 200 -1 46 27 88 50 92 50 5 0 15 7 23 15 10 9 26 13
42 10 20 -4 22 -3 8 3 -17 8 -16 11 16 30 21 13 43 20 54 16 15 -4 16 -4 5 4
-11 8 -7 13 18 26 17 9 37 14 43 10 6 -4 8 -3 4 4 -8 13 60 56 75 46 8 -5 9
-3 4 6 -6 10 -4 12 8 7 9 -3 16 -2 14 3 -2 10 151 110 170 110 7 0 13 5 13 11
0 5 4 8 9 5 5 -4 11 -3 13 2 7 17 108 73 119 66 7 -4 9 -3 5 4 -8 14 30 36 46
26 6 -4 8 -3 5 4 -9 13 79 65 95 56 7 -5 8 -3 3 6 -6 10 -4 12 11 6 10 -4 15
-4 11 0 -4 4 1 13 11 21 16 12 16 14 0 26 -10 8 -15 17 -11 21 4 4 -1 4 -11 0
-15 -6 -17 -4 -11 6 5 9 4 11 -3 6 -16 -9 -104 43 -95 56 3 7 1 8 -5 4 -15 -9
-54 12 -47 24 4 6 -1 7 -11 3 -13 -5 -15 -3 -9 7 5 9 4 11 -3 6 -11 -6 -93 40
-100 57 -2 4 -8 5 -13 1 -5 -3 -9 0 -9 5 0 6 -6 11 -13 11 -20 0 -177 101
-172 111 4 5 -2 6 -11 2 -13 -5 -15 -3 -9 7 5 9 4 11 -4 6 -15 -10 -83 33 -75
46 4 7 2 8 -5 4 -7 -5 -42 10 -83 34 -53 32 -67 45 -57 52 10 7 8 8 -7 3 -14
-3 -28 1 -38 10 -9 9 -16 14 -16 11 0 -3 -37 17 -82 44 -46 28 -89 50 -96 50
-21 0 -115 -32 -139 -48 -13 -8 -30 -12 -38 -8 -9 3 -14 2 -11 -2 2 -4 -28
-20 -67 -36 -73 -29 -99 -40 -172 -72 -22 -10 -44 -19 -50 -19 -5 -1 -27 -10
-49 -19 -21 -10 -46 -14 -54 -11 -9 3 -13 3 -9 -1 9 -9 -23 -25 -167 -82 -112
-45 -165 -56 -191 -41 -5 4 -21 9 -35 13 -49 12 -108 82 -96 112 3 9 1 12 -4
9 -16 -10 -16 79 1 131 19 61 50 80 269 170 264 107 311 125 320 119 6 -3 10
-2 10 3 0 5 14 16 31 25 l32 15 -62 39 c-33 22 -57 43 -54 47 4 4 1 5 -7 2
-19 -7 -153 77 -143 89 5 4 3 5 -3 2 -13 -8 -199 98 -199 112 0 5 -4 13 -9 18
-5 5 -6 3 -2 -4 10 -18 -2 -16 -38 6 -36 22 -80 70 -72 78 3 3 -1 12 -9 20
-18 17 -21 133 -4 133 5 0 8 4 5 9 -8 13 4 42 15 35 5 -3 6 2 3 10 -7 19 12
22 20 4 3 -7 3 -3 1 8 -5 18 2 26 38 43 63 31 132 28 198 -7 76 -40 129 -78
121 -86 -3 -4 0 -5 8 -2 19 7 83 -31 75 -44 -3 -5 0 -7 7 -5 8 3 78 -33 157
-81 78 -47 145 -84 148 -80 7 7 -12 251 -32 406 -25 195 -26 230 -10 230 8 0
15 5 15 11 0 5 -4 7 -10 4 -31 -19 3 67 40 100 18 16 23 17 31 5 8 -12 9 -10
4 6 -5 18 0 24 26 33 51 17 114 13 161 -11 79 -41 98 -80 114 -238 7 -69 20
-192 28 -275 24 -225 47 -434 54 -489 l7 -50 230 -137 c127 -75 235 -142 242
-148 7 -6 14 -11 17 -11 5 0 148 -83 196 -115 19 -12 80 -48 135 -80 55 -32
114 -69 131 -81 l32 -23 7 302 c4 166 5 428 3 582 l-5 280 -89 68 c-49 38 -92
74 -96 80 -4 7 -8 8 -8 4 0 -6 -101 63 -120 83 -3 3 -23 18 -45 35 -22 16 -44
33 -50 37 -5 5 -40 31 -77 59 -37 28 -65 56 -61 62 3 6 1 7 -6 3 -16 -10 -197
127 -216 164 -38 74 -27 177 26 233 17 18 28 25 24 17 -4 -9 -1 -8 8 3 17 20
68 37 112 37 37 -1 109 -26 113 -40 2 -5 8 -10 14 -10 5 0 15 -6 22 -12 7 -7
25 -22 40 -33 28 -20 132 -97 151 -112 96 -75 248 -184 251 -180 3 3 7 148 10
322 4 281 6 323 23 359 10 23 29 50 41 61 15 13 21 15 16 5 -4 -8 -1 -7 7 3 8
10 28 22 44 27 39 12 103 12 103 0z"/>
</g>
</svg>
